<svg width="18" height="16" viewBox="0 0 18 16" fill="none" xmlns="http://www.w3.org/2000/svg">
<ellipse cx="9" cy="8" rx="9" ry="8" fill="#D9D9D9"/>
<path d="M8.60369 12V6.54545H10.1165V12H8.60369ZM9.36364 5.84233C9.13873 5.84233 8.94579 5.76776 8.7848 5.61861C8.62618 5.46709 8.54688 5.28598 8.54688 5.07528C8.54688 4.86695 8.62618 4.68821 8.7848 4.53906C8.94579 4.38755 9.13873 4.31179 9.36364 4.31179C9.58854 4.31179 9.7803 4.38755 9.93892 4.53906C10.0999 4.68821 10.1804 4.86695 10.1804 5.07528C10.1804 5.28598 10.0999 5.46709 9.93892 5.61861C9.7803 5.76776 9.58854 5.84233 9.36364 5.84233Z" fill="black"/>
</svg>
